<?xml version="1.0" encoding="UTF-8"?>
<!DOCTYPE svg PUBLIC "-//W3C//DTD SVG 1.1//EN" "http://www.w3.org/Graphics/SVG/1.1/DTD/svg11.dtd">
<!-- Creator: CorelDRAW 2019 (64-Bit) -->
<svg xmlns="http://www.w3.org/2000/svg" xml:space="preserve" width="47.275mm" height="52.3006mm" version="1.1" style="shape-rendering:geometricPrecision; text-rendering:geometricPrecision; image-rendering:optimizeQuality; fill-rule:evenodd; clip-rule:evenodd"
viewBox="0 0 4727.5 5230.06"
 xmlns:xlink="http://www.w3.org/1999/xlink">
 <defs>
  <style type="text/css">
   <![CDATA[
    .fil10 {fill:none}
    .fil4 {fill:#1A1A1A}
    .fil0 {fill:#262F36}
    .fil69 {fill:#5ca700}
    .fil1 {fill:#666666}
    .fil3 {fill:#999999}
    .fil2 {fill:#CCCCCC}
    .fil31 {fill:white;fill-rule:nonzero}
    .fil28 {fill:url(#id0)}
    .fil8 {fill:url(#id1)}
    .fil19 {fill:url(#id2)}
    .fil29 {fill:url(#id3)}
    .fil26 {fill:url(#id4)}
    .fil34 {fill:url(#id5)}
    .fil5 {fill:url(#id6)}
    .fil47 {fill:url(#id7)}
    .fil65 {fill:url(#id8)}
    .fil14 {fill:url(#id9)}
    .fil63 {fill:url(#id10)}
    .fil64 {fill:url(#id11)}
    .fil11 {fill:url(#id12)}
    .fil50 {fill:url(#id13)}
    .fil49 {fill:url(#id14)}
    .fil35 {fill:url(#id15)}
    .fil9 {fill:url(#id16)}
    .fil51 {fill:url(#id17)}
    .fil42 {fill:url(#id18)}
    .fil38 {fill:url(#id19)}
    .fil21 {fill:url(#id20)}
    .fil37 {fill:url(#id21)}
    .fil30 {fill:url(#id22)}
    .fil58 {fill:url(#id23)}
    .fil52 {fill:url(#id24)}
    .fil67 {fill:url(#id25)}
    .fil53 {fill:url(#id26)}
    .fil15 {fill:url(#id27)}
    .fil7 {fill:url(#id28)}
    .fil27 {fill:url(#id29)}
    .fil66 {fill:url(#id30)}
    .fil48 {fill:url(#id31)}
    .fil61 {fill:url(#id32)}
    .fil46 {fill:url(#id33)}
    .fil40 {fill:url(#id34)}
    .fil6 {fill:url(#id35)}
    .fil56 {fill:url(#id36)}
    .fil39 {fill:url(#id37)}
    .fil57 {fill:url(#id38)}
    .fil22 {fill:url(#id39)}
    .fil12 {fill:url(#id40)}
    .fil54 {fill:url(#id41)}
    .fil45 {fill:url(#id42)}
    .fil16 {fill:url(#id43)}
    .fil59 {fill:url(#id44)}
    .fil44 {fill:url(#id45)}
    .fil36 {fill:url(#id46)}
    .fil33 {fill:url(#id47)}
    .fil60 {fill:url(#id48)}
    .fil62 {fill:url(#id49)}
    .fil68 {fill:url(#id50)}
    .fil41 {fill:url(#id51)}
    .fil23 {fill:url(#id52)}
    .fil17 {fill:url(#id53)}
    .fil43 {fill:url(#id54)}
    .fil13 {fill:url(#id55)}
    .fil18 {fill:url(#id56)}
    .fil24 {fill:url(#id57)}
    .fil25 {fill:url(#id58)}
    .fil20 {fill:url(#id59)}
    .fil32 {fill:url(#id60)}
    .fil55 {fill:url(#id61)}
   ]]>
  </style>
  <linearGradient id="id0" gradientUnits="userSpaceOnUse" x1="4239.1" y1="2226.91" x2="3590.24" y2="2226.95">
   <stop offset="0" style="stop-opacity:1; stop-color:#545454"/>
   <stop offset="1" style="stop-opacity:1; stop-color:#171717"/>
  </linearGradient>
  <linearGradient id="id1" gradientUnits="userSpaceOnUse" xlink:href="#id0" x1="4239.11" y1="2864.13" x2="3590.23" y2="2864.03">
  </linearGradient>
  <linearGradient id="id2" gradientUnits="userSpaceOnUse" xlink:href="#id0" x1="2990.29" y1="2542.68" x2="2590.2" y2="2541.24">
  </linearGradient>
  <linearGradient id="id3" gradientUnits="userSpaceOnUse" xlink:href="#id0" x1="4239.07" y1="2090.54" x2="3590.21" y2="2090.6">
  </linearGradient>
  <linearGradient id="id4" gradientUnits="userSpaceOnUse" xlink:href="#id0" x1="2995.84" y1="1644.84" x2="2595.57" y2="1644.58">
  </linearGradient>
  <linearGradient id="id5" gradientUnits="userSpaceOnUse" x1="1714.5" y1="1872.6" x2="2123.41" y2="1870.3">
   <stop offset="0" style="stop-opacity:1; stop-color:#335C00"/>
   <stop offset="1" style="stop-opacity:1; stop-color:#090A09"/>
  </linearGradient>
  <linearGradient id="id6" gradientUnits="userSpaceOnUse" xlink:href="#id0" x1="4239.18" y1="3266.97" x2="3590.29" y2="3267.1">
  </linearGradient>
  <linearGradient id="id7" gradientUnits="userSpaceOnUse" xlink:href="#id5" x1="1755.36" y1="3309.67" x2="2156.87" y2="3314.03">
  </linearGradient>
  <linearGradient id="id8" gradientUnits="userSpaceOnUse" xlink:href="#id5" x1="497.15" y1="2729.35" x2="1148.62" y2="2729.34">
  </linearGradient>
  <linearGradient id="id9" gradientUnits="userSpaceOnUse" xlink:href="#id0" x1="2984.23" y1="3172.7" x2="2585.69" y2="3170.81">
  </linearGradient>
  <linearGradient id="id10" gradientUnits="userSpaceOnUse" xlink:href="#id5" x1="1223.01" y1="3106.88" x2="1223.01" y2="3001.19">
  </linearGradient>
  <linearGradient id="id11" gradientUnits="userSpaceOnUse" xlink:href="#id5" x1="497.18" y1="3017.69" x2="1546.37" y2="3017.69">
  </linearGradient>
  <linearGradient id="id12" gradientUnits="userSpaceOnUse" xlink:href="#id0" x1="2982.28" y1="3551.56" x2="2584.72" y2="3551.24">
  </linearGradient>
  <linearGradient id="id13" gradientUnits="userSpaceOnUse" xlink:href="#id5" x1="1498.73" y1="2585.61" x2="2157.06" y2="2585.61">
  </linearGradient>
  <linearGradient id="id14" gradientUnits="userSpaceOnUse" xlink:href="#id5" x1="1722.24" y1="3427.27" x2="2064.03" y2="3629.39">
  </linearGradient>
  <linearGradient id="id15" gradientUnits="userSpaceOnUse" xlink:href="#id5" x1="1715.67" y1="2004.06" x2="2124.46" y2="2001.64">
  </linearGradient>
  <linearGradient id="id16" gradientUnits="userSpaceOnUse" xlink:href="#id0" x1="4239.2" y1="2755.42" x2="3590.29" y2="2755.27">
  </linearGradient>
  <linearGradient id="id17" gradientUnits="userSpaceOnUse" xlink:href="#id5" x1="1201.02" y1="1986.14" x2="1219.96" y2="2114.51">
  </linearGradient>
  <linearGradient id="id18" gradientUnits="userSpaceOnUse" xlink:href="#id5" x1="1703.96" y1="2701.3" x2="2117.75" y2="2643.31">
  </linearGradient>
  <linearGradient id="id19" gradientUnits="userSpaceOnUse" xlink:href="#id5" x1="1691.75" y1="2364.83" x2="2117.97" y2="2404.82">
  </linearGradient>
  <linearGradient id="id20" gradientUnits="userSpaceOnUse" xlink:href="#id0" x1="2992.72" y1="2276.94" x2="2592.23" y2="2275.5">
  </linearGradient>
  <linearGradient id="id21" gradientUnits="userSpaceOnUse" xlink:href="#id5" x1="1717.42" y1="2260.22" x2="2125.47" y2="2261.24">
  </linearGradient>
  <linearGradient id="id22" gradientUnits="userSpaceOnUse" xlink:href="#id0" x1="4239.03" y1="1954.17" x2="3590.19" y2="1954.22">
  </linearGradient>
  <linearGradient id="id23" gradientUnits="userSpaceOnUse" xlink:href="#id5" x1="497.13" y1="2388.93" x2="1148.63" y2="2389.05">
  </linearGradient>
  <linearGradient id="id24" gradientUnits="userSpaceOnUse" xlink:href="#id5" x1="1023.9" y1="1996.05" x2="1162.18" y2="2133.9">
  </linearGradient>
  <linearGradient id="id25" gradientUnits="userSpaceOnUse" xlink:href="#id5" x1="497.18" y1="2944.1" x2="1148.63" y2="2944.1">
  </linearGradient>
  <linearGradient id="id26" gradientUnits="userSpaceOnUse" xlink:href="#id5" x1="903.68" y1="2022.2" x2="1059.49" y2="2155.35">
  </linearGradient>
  <linearGradient id="id27" gradientUnits="userSpaceOnUse" xlink:href="#id0" x1="2985.28" y1="3046.62" x2="2586.38" y2="3044.58">
  </linearGradient>
  <linearGradient id="id28" gradientUnits="userSpaceOnUse" xlink:href="#id0" x1="4239.07" y1="2998.38" x2="3590.23" y2="2998.41">
  </linearGradient>
  <linearGradient id="id29" gradientUnits="userSpaceOnUse" xlink:href="#id0" x1="4239.13" y1="2363.29" x2="3590.27" y2="2363.32">
  </linearGradient>
  <linearGradient id="id30" gradientUnits="userSpaceOnUse" xlink:href="#id5" x1="497.17" y1="2853.26" x2="1148.63" y2="2853.24">
  </linearGradient>
  <linearGradient id="id31" gradientUnits="userSpaceOnUse" xlink:href="#id5" x1="1736.55" y1="3408.9" x2="2152.13" y2="3459.91">
  </linearGradient>
  <linearGradient id="id32" gradientUnits="userSpaceOnUse" xlink:href="#id5" x1="908.61" y1="3077.26" x2="1083.5" y2="2958.18">
  </linearGradient>
  <linearGradient id="id33" gradientUnits="userSpaceOnUse" xlink:href="#id5" x1="1757.5" y1="3180.84" x2="2157.06" y2="3180.96">
  </linearGradient>
  <linearGradient id="id34" gradientUnits="userSpaceOnUse" xlink:href="#id5" x1="1502.52" y1="2518.9" x2="2001.79" y2="2525.44">
  </linearGradient>
  <linearGradient id="id35" gradientUnits="userSpaceOnUse" xlink:href="#id0" x1="4239.13" y1="3132.66" x2="3590.24" y2="3132.78">
  </linearGradient>
  <linearGradient id="id36" gradientUnits="userSpaceOnUse" xlink:href="#id5" x1="497.27" y1="2182.59" x2="1148.71" y2="2182.59">
  </linearGradient>
  <linearGradient id="id37" gradientUnits="userSpaceOnUse" xlink:href="#id5" x1="1698.92" y1="2439.51" x2="1968.24" y2="2515.26">
  </linearGradient>
  <linearGradient id="id38" gradientUnits="userSpaceOnUse" xlink:href="#id5" x1="497.18" y1="2305.23" x2="1148.71" y2="2305.36">
  </linearGradient>
  <linearGradient id="id39" gradientUnits="userSpaceOnUse" xlink:href="#id0" x1="2993.75" y1="2150.97" x2="2593.18" y2="2149.49">
  </linearGradient>
  <linearGradient id="id40" gradientUnits="userSpaceOnUse" xlink:href="#id0" x1="2982.7" y1="3425.16" x2="2584.82" y2="3424.09">
  </linearGradient>
  <linearGradient id="id41" gradientUnits="userSpaceOnUse" xlink:href="#id5" x1="790.2" y1="2049.29" x2="953.76" y2="2177.62">
  </linearGradient>
  <linearGradient id="id42" gradientUnits="userSpaceOnUse" xlink:href="#id5" x1="1756.65" y1="3051.74" x2="2156.93" y2="3050.23">
  </linearGradient>
  <linearGradient id="id43" gradientUnits="userSpaceOnUse" xlink:href="#id0" x1="2986.44" y1="2920.59" x2="2587.23" y2="2918.57">
  </linearGradient>
  <linearGradient id="id44" gradientUnits="userSpaceOnUse" xlink:href="#id5" x1="497.13" y1="2252.86" x2="1148.71" y2="2252.86">
  </linearGradient>
  <linearGradient id="id45" gradientUnits="userSpaceOnUse" xlink:href="#id5" x1="1755.77" y1="2922.57" x2="2156.2" y2="2921.35">
  </linearGradient>
  <linearGradient id="id46" gradientUnits="userSpaceOnUse" xlink:href="#id5" x1="1716.99" y1="2132.33" x2="2125.4" y2="2130.42">
  </linearGradient>
  <linearGradient id="id47" gradientUnits="userSpaceOnUse" xlink:href="#id5" x1="1702.14" y1="1771.35" x2="2120.95" y2="1736.37">
  </linearGradient>
  <linearGradient id="id48" gradientUnits="userSpaceOnUse" xlink:href="#id5" x1="784.21" y1="3045.19" x2="970.28" y2="2930.3">
  </linearGradient>
  <linearGradient id="id49" gradientUnits="userSpaceOnUse" xlink:href="#id5" x1="1056.29" y1="3102.15" x2="1174.56" y2="2982.9">
  </linearGradient>
  <linearGradient id="id50" gradientUnits="userSpaceOnUse" xlink:href="#id5" x1="497.15" y1="2834.69" x2="1148.63" y2="2834.69">
  </linearGradient>
  <linearGradient id="id51" gradientUnits="userSpaceOnUse" xlink:href="#id5" x1="1673.01" y1="2604.38" x2="1984.66" y2="2536.04">
  </linearGradient>
  <linearGradient id="id52" gradientUnits="userSpaceOnUse" xlink:href="#id0" x1="2994.64" y1="2024.85" x2="2594.01" y2="2023.38">
  </linearGradient>
  <linearGradient id="id53" gradientUnits="userSpaceOnUse" xlink:href="#id0" x1="2987.7" y1="2794.62" x2="2588.16" y2="2792.7">
  </linearGradient>
  <linearGradient id="id54" gradientUnits="userSpaceOnUse" xlink:href="#id5" x1="1741.83" y1="2801.64" x2="2154.29" y2="2783.26">
  </linearGradient>
  <linearGradient id="id55" gradientUnits="userSpaceOnUse" xlink:href="#id0" x1="2983.36" y1="3298.87" x2="2585.16" y2="3297.31">
  </linearGradient>
  <linearGradient id="id56" gradientUnits="userSpaceOnUse" xlink:href="#id0" x1="2988.99" y1="2668.65" x2="2589.17" y2="2666.95">
  </linearGradient>
  <linearGradient id="id57" gradientUnits="userSpaceOnUse" xlink:href="#id0" x1="2995.31" y1="1898.47" x2="2594.71" y2="1897.25">
  </linearGradient>
  <linearGradient id="id58" gradientUnits="userSpaceOnUse" xlink:href="#id0" x1="2995.72" y1="1771.83" x2="2595.24" y2="1770.97">
  </linearGradient>
  <linearGradient id="id59" gradientUnits="userSpaceOnUse" xlink:href="#id0" x1="2991.54" y1="2405.74" x2="2591.24" y2="2404.42">
  </linearGradient>
  <linearGradient id="id60" gradientUnits="userSpaceOnUse" xlink:href="#id5" x1="1670.84" y1="1734.59" x2="2074.9" y2="1572.87">
  </linearGradient>
  <linearGradient id="id61" gradientUnits="userSpaceOnUse" xlink:href="#id5" x1="497.27" y1="2082.66" x2="1552.86" y2="2082.66">
  </linearGradient>
 </defs>
 <g id="Warstwa_x0020_1">
  <metadata id="CorelCorpID_0Corel-Layer"/>
  <g id="_2142433500816">
   <path class="fil0" d="M-0.01 3877.99c0,60.33 0,120.36 0,180.13 112.76,56.04 234.73,116.48 367.12,182.08 34.73,17.32 70.44,34.94 106.83,52.96 75.16,37.27 153.88,76.26 235.89,116.93 176.58,87.56 370.89,183.96 586.23,290.72 177.51,88.01 370.63,183.75 581.71,288.32 151.75,75.41 313.92,155.65 485.98,240.95 333.26,-165.34 627.79,-311.36 889.92,-441.26 60.05,-29.92 119.14,-59.2 177.53,-88.01 109.92,-54.58 214.87,-106.65 315.1,-156.25 184.6,-91.63 352.91,-175.07 507,-251.4 106.86,-52.96 207.07,-102.67 301.41,-149.41 59.32,-29.54 117,-58.1 172.8,-85.63 0,-119.8 0,-240.2 0,-360.57 0,-60.04 0,-120.06 0,-180.41 0,-60.06 0,-120.09 0,-180.7 0,-59.77 0,-119.81 0,-180.14 0,-120.09 0,-240.46 0,-360.84 0,-60.06 0,-120.09 0,-180.69 0,-59.76 0,-119.78 0,-180.12 0,-60.06 0,-120.1 0,-180.43 0,-60.05 0,-120.07 0,-180.41 0,-60.07 0,-120.1 0,-180.43 0,-120.07 0,-240.48 0,-360.84 0,-60.04 0,-120.08 0,-180.42 0,-60.06 0,-120.08 0,-180.72 -27.9,-13.71 -55.8,-27.55 -84.17,-41.58 -120.08,-59.44 -249.63,-123.68 -390.04,-193.4 -37.57,-18.56 -75.62,-37.36 -114.16,-56.49 -40.17,-19.84 -80.6,-39.94 -121.73,-60.4 -43.01,-21.24 -86.51,-42.81 -130.7,-64.75 -93.14,-46.02 -190.54,-94.24 -291.93,-144.66 -53.66,-26.56 -108.27,-53.54 -163.58,-81.1 -240.86,-119.24 -509.85,-252.58 -812.89,-402.78 -83.2,-41.17 -167.81,-83.19 -254.56,-126.25 -87.44,43.27 -172.31,85.29 -254.8,126.25 -303.49,150.36 -572.5,283.68 -812.89,402.78 -56.03,27.67 -110.4,54.65 -163.58,81.1 -51.76,25.57 -102.12,50.55 -151.3,75.02 -47.96,23.72 -94.77,46.9 -140.62,69.64 -87.92,43.6 -172.33,85.31 -252.46,125.15 -39,19.23 -77.06,38.01 -114.16,56.49 -140.88,69.8 -270.41,134.02 -390.03,193.4 -28.81,14.11 -56.71,27.95 -83.92,41.58 0,150.71 0,301.39 0,451.49 0,150.11 0,300.81 0,450.92 0,60.34 0,120.36 0,180.41 0,60.33 0,120.37 0,180.43 0,240.72 0,481.19 0,721.65 0,60.33 0,120.37 0,180.14 0,180.7 0,361.11 0,541.55z"/>
   <g>
    <g>
     <path class="fil1" d="M198.19 3321.64c0,58.38 0,116.79 0,174.9 27.61,8.53 55.46,17.19 83.96,26.02 0,-60.13 0,-120.23 0.23,-180.31 -27.31,-6.5 -54.22,-13.18 -80.72,-19.74 -1.16,-0.29 -2.31,-0.58 -3.47,-0.87z"/>
     <path class="fil1" d="M282.63 3529.95c0,58.08 0,116.17 0,174.26 29.4,10.93 59.03,22.01 89.57,33.31 0,62.57 0,124.82 0,187.08 -89.57,-38.87 -174.01,-75.47 -253.49,-110.04 0,57.3 0,114.32 0,171.09 107.09,53.23 222.95,110.64 348.69,172.95 0,-63.93 0,-128.15 0,-192.68 32.99,14.4 66.89,29.05 101.46,44.02 71.38,31 146.14,63.37 224.05,97.19 40.4,17.61 81.74,35.53 123.92,53.79 0,-73.49 0,-146.97 0,-220.82 88.23,32.8 180.5,67.18 277.49,103.24 0,-76.18 0,-152.33 0,-228.5 -189.26,-59.15 -361.21,-112.87 -517.48,-161.69 -142.52,-44.54 -273.44,-85.47 -394.21,-123.2z"/>
     <path class="fil2" d="M568.86 1220.63c-101.47,43.98 -196.67,85.23 -286.24,124.06 0,60.71 0,121.11 0,181.54 59.25,-21.99 120.78,-44.87 184.77,-68.66 33.21,-12.35 66.9,-24.88 101.47,-37.67 108.2,-40.15 223.84,-83.14 347.97,-129.25 0,-73.47 0,-146.96 0,-220.81 0,-73.49 0,-147.32 0,-221.52 -83.51,41.4 -163.44,80.91 -239.54,118.76 -0.23,69.23 -0.23,138.1 -0.23,206.64 -36.82,15.96 -72.96,31.56 -108.2,46.91z"/>
     <path class="fil3" d="M198.19 1909.61c0,-58.38 0,-117.07 0,-175.74 0,-58.66 0,-117.32 0,-176.29 27.86,-10.28 55.92,-20.72 84.43,-31.35 0,-60.43 0,-120.83 0,-181.54 -28.51,12.42 -56.57,24.6 -84.43,36.59 0,-58.67 0,-117.61 0.24,-176.86 -27.39,13.4 -53.88,26.54 -79.72,39.49 0,142.3 0,284.33 0,426.07 0,141.75 0,283.77 0,425.53 24.92,-4.72 50.53,-9.53 76.57,-14.41 0,-56.91 0,-113.83 0,-170.76 0.89,-0.21 2.02,-0.47 2.91,-0.73z"/>
     <path class="fil3" d="M792.91 4107.13c0,71.27 0,142.21 0,212.81 167.71,83.17 352.24,174.73 556.33,275.99 0,-82.02 0,-164.43 0,-247.24 -52.76,-22.88 -104.4,-45.34 -154.93,-67.35 0,-79.22 0,-158.41 0,-238.01 -96.98,-36.04 -189.25,-70.42 -277.48,-103.23 0,73.85 0,147.32 0,220.82 -42.19,-18.26 -83.51,-36.19 -123.92,-53.79z"/>
     <path class="fil1" d="M1349.24 3863.35c0,79.24 0,158.49 0,237.73 55,20.41 111.34,41.39 169.04,62.79 0,-82.57 0,-165.17 0,-247.75 -57.7,-18 -114.04,-35.6 -169.04,-52.77zm551.37 161c0.45,0.11 0.68,0.21 1.36,0.42 71.38,22.13 144.34,44.77 219.34,67.98 0,-97.85 0,-195.71 0,-293.56 -75,-18.58 -147.96,-36.75 -218.89,-54.42 -0.68,93.19 -1.36,186.35 -1.81,279.58z"/>
     <path class="fil3" d="M1701.25 1259.63c0,-86.63 0,-173.29 0,-260.38 -62.19,23.17 -123.25,45.83 -182.97,68.03 -169.04,62.7 -324.41,120.41 -468.09,173.81 0,74.06 0,147.72 0,221.4 194.43,-60.59 410.18,-127.79 651.06,-202.86z"/>
     <path class="fil3" d="M1701.25 999.25c65.11,-24.19 132.25,-49.06 200.72,-74.52 0,94.26 0,188.08 0,281.87 71.38,-22.11 144.34,-44.73 219.34,-67.86 0,98.32 0,196.64 0,294.96 2.69,-0.66 5.16,-1.29 7.86,-1.95 75.86,-18.79 154.21,-38.22 234.58,-58.57 0,-206.14 0,-412.78 0,-619.92 -83.04,30.79 -164.09,60.85 -242.44,90.02 0,-98.32 0,-196.67 0,-295.46 -148.4,64.25 -288.28,124.89 -420.06,182 0,90.11 0,179.77 0,269.43z"/>
     <path class="fil1" d="M1518.28 4421.97c-57.7,-24.99 -114.04,-49.44 -169.04,-73.28 0,82.81 0,165.22 0,247.24 168.6,83.58 352.01,174.49 552.94,273.98 -0.21,-93.37 -0.21,-187.16 -0.21,-281.42 71.38,30.97 144.34,62.7 219.34,95.15 0,-98.32 0,-196.64 0,-295.43 -75,-27.83 -147.96,-55.03 -219.34,-81.59 -68.47,-25.46 -135.61,-50.39 -200.72,-74.63 0,90.09 0,179.75 0,269.44 -62.19,-27.06 -123.25,-53.55 -182.97,-79.46z"/>
     <path class="fil3" d="M118.71 3814.56c79.48,34.57 163.91,71.17 253.48,110.03 0,-62.25 0,-124.51 0,-187.07 -30.53,-11.31 -60.17,-22.38 -89.57,-33.32 -28.74,-10.63 -56.81,-21.07 -84.43,-31.37 0,-58.69 0,-117.35 0,-176.3 0,-58.1 0,-116.51 0,-174.89 -1.12,-0.26 -2.02,-0.52 -3.14,-0.77 0,-0.29 0,-0.85 0,-1.69 -26.03,-6.46 -51.42,-12.75 -76.34,-18.96 0,171.62 0,342.97 0,514.34z"/>
     <path class="fil1" d="M1900.85 1488.26c71.82,-17.77 145.25,-35.93 220.46,-54.56 0,-98.32 0,-196.64 0,-294.96 -75,23.13 -147.96,45.75 -219.34,67.86 -0.47,0.09 -0.68,0.21 -0.68,0.21 -0.44,93.89 -0.44,187.66 -0.44,281.45z"/>
     <path class="fil2" d="M1050.19 1012.02c0,76.59 0,152.83 0,229.07 143.68,-53.4 299.05,-111.11 468.09,-173.81 0,-85.91 0,-171.79 0,-258.1 -57.7,24.95 -114.04,49.37 -169.04,73.17 -52.76,22.88 -104.4,45.29 -154.93,67.25 0,-79.22 0,-158.79 0,-238.79 -49.16,24.29 -97.19,48.13 -143.89,71.39 0,76.96 -0.23,153.58 -0.23,229.82z"/>
     <path class="fil1" d="M1349.24 882.35c55,-23.8 111.34,-48.22 169.04,-73.17 59.72,-25.88 120.78,-52.33 182.97,-79.36 131.78,-57.11 271.66,-117.75 420.06,-182 0,-98.32 0,-197.11 0,-296.4 -288.28,142.79 -543.75,269.39 -772.07,382.52 0,83.21 0,166 0,248.41z"/>
     <path class="fil1" d="M282.62 1344.69c89.57,-38.83 184.77,-80.08 286.24,-124.06 0,-66.31 0,-132.93 0,-199.9 -133.8,66.29 -256.84,127.3 -370.43,183.69 -0.24,59.25 -0.24,118.19 -0.24,176.86 27.86,-11.99 55.92,-24.17 84.43,-36.59z"/>
     <path class="fil3" d="M1518.28 4163.87c0,86.31 0,172.2 0,258.1 59.72,25.91 120.78,52.4 182.97,79.46 0,-89.69 0,-179.35 0,-269.44 65.11,24.24 132.25,49.17 200.72,74.63 0,-93.8 0,-187.61 0,-281.85 -0.68,-0.21 -0.91,-0.31 -1.36,-0.42 0,4.06 0,7.67 0,11.28 -134.69,-42.12 -261.99,-81.87 -382.33,-119.51 0,82.58 0,165.18 0,247.75z"/>
     <path class="fil2" d="M282.62 1707.78c-28.51,8.82 -56.57,17.53 -84.43,26.09 0,58.67 0,117.36 0,175.74 27.86,-6.57 55.92,-13.54 84.43,-20.6 0,-60.4 0,-120.8 0,-181.23z"/>
     <path class="fil1" d="M916.83 1504.05c0,-71.01 0,-142.01 0,-213.4 -124.13,46.11 -239.77,89.1 -347.97,129.25 0,64.39 0,128.48 0,192.56 108.2,-33.67 223.84,-69.74 347.97,-108.41z"/>
     <path class="fil3" d="M1902.18 4869.91c144.13,71.62 298.16,147.84 461.57,228.84 0,-206.17 0,-413.3 0,-620.93 -83.04,-30.34 -163.88,-60.42 -242.44,-89.61 0,98.79 0,197.11 0,295.43 -75,-32.45 -147.96,-64.18 -219.34,-95.15 0,94.26 0,188.05 0.21,281.42z"/>
     <path class="fil3" d="M568.86 3810.67c71.38,26.58 146.14,54.34 224.05,83.32 0,-68.21 0,-136.4 0,-204.62 -77.91,-24.33 -152.67,-47.66 -224.05,-70 0,63.78 0,127.54 0,191.3z"/>
     <path class="fil2" d="M1901.97 4306.62c71.38,26.56 144.34,53.76 219.34,81.59 78.56,29.19 159.4,59.27 242.44,89.61 0,-102.82 0,-206.17 0,-310.47 -83.04,-25.21 -163.88,-50.27 -242.44,-74.6 -75,-23.21 -147.96,-45.85 -219.34,-67.98 0,94.24 0,188.05 0,281.85z"/>
     <path class="fil2" d="M568.86 4208.88c71.38,35.41 146.14,72.44 224.05,111.06 0,-70.6 0,-141.54 0,-212.81 -77.91,-33.81 -152.67,-66.19 -224.05,-97.19 0,66.62 0,132.93 0,198.94z"/>
     <path class="fil1" d="M467.39 1644.07c0,-62.07 0,-124.13 0,-186.5 -63.99,23.79 -125.52,46.67 -184.77,68.66 0,58.66 0,117.04 0,175.43 59.25,-18.45 120.78,-37.64 184.77,-57.59z"/>
     <path class="fil2" d="M1349.24 4348.69c55,23.84 111.34,48.29 169.04,73.28 0,-85.9 0,-171.79 0,-258.1 -57.7,-21.4 -114.04,-42.38 -169.04,-62.79 -52.76,-19.64 -104.4,-38.88 -154.93,-57.75 0,79.6 0,158.79 0,238.01 50.53,22.01 102.17,44.47 154.93,67.35z"/>
     <path class="fil2" d="M282.62 3704.2c0,-58.08 0,-116.18 0,-174.25 -0.23,-0.05 -0.47,-0.1 -0.47,-0.12 0,-2.32 0,-4.65 0,-7.28 -28.51,-8.82 -56.34,-17.48 -83.96,-26.02 0,58.95 0,117.61 0,176.3 27.62,10.3 55.69,20.74 84.43,31.37z"/>
     <path class="fil3" d="M568.86 1220.63c35.24,-15.35 71.38,-30.95 108.2,-46.91 0,-68.54 0,-137.41 0.23,-206.64 -37.05,18.26 -73.19,36.09 -108.43,53.65 0,66.97 0,133.59 0,199.9z"/>
     <path class="fil2" d="M1901.29 1206.81c0,0 0.21,-0.12 0.68,-0.21 0,-93.79 0,-187.61 0,-281.87 -68.47,25.46 -135.61,50.33 -200.72,74.52 0,87.09 0,173.75 0,260.38 65.11,-20.3 131.78,-41.06 200.04,-62.3 0,3.17 0,6.31 0,9.48z"/>
     <path class="fil4" d="M1194.31 4043.33c50.53,18.87 102.17,38.11 154.93,57.75 0,-79.24 0,-158.49 0,-237.73 -52.76,-16.5 -104.4,-32.67 -154.93,-48.51 0,76.17 0,152.32 0,228.49z"/>
     <path class="fil3" d="M916.83 1290.65c43.55,-16.19 88.02,-32.66 133.36,-49.56 0,-76.24 0,-152.48 0,-229.07 -45.34,19.69 -89.81,38.93 -133.36,57.82 0,73.85 0,147.34 0,220.81z"/>
     <path class="fil4" d="M1518.28 1067.28c59.72,-22.2 120.78,-44.86 182.97,-68.03 0,-89.66 0,-179.32 0,-269.43 -62.19,27.03 -123.25,53.48 -182.97,79.36 0,86.31 0,172.19 0,258.1z"/>
     <path class="fil4" d="M198.19 1733.87c27.86,-8.56 55.92,-17.27 84.43,-26.09 0,-2.02 0,-4.06 0,-6.1 0,0 0,0 0,-0.02 0,-58.39 0,-116.77 0,-175.43 -28.51,10.63 -56.57,21.07 -84.43,31.35 0,58.97 0,117.63 0,176.29z"/>
     <path class="fil2" d="M372.19 3737.52c31.21,11.6 62.87,23.38 95.2,35.41 0,-61.73 0,-123.5 0,-185.24 -32.33,-10.11 -63.99,-20.01 -95.2,-29.77 0,59.88 0,119.74 0,179.6z"/>
     <path class="fil4" d="M467.39 3772.93c32.99,12.37 66.9,24.92 101.47,37.74 0,-63.76 0,-127.52 0,-191.3 -34.57,-10.77 -68.48,-21.3 -101.47,-31.68 0,61.74 0,123.51 0,185.24z"/>
     <path class="fil1" d="M2363.75 753.26c0,-103.32 0,-206.64 0,-310.47 -83.04,35.95 -164.09,71 -242.44,105.03 0,98.79 0,197.14 0,295.46 78.35,-29.17 159.4,-59.23 242.44,-90.02z"/>
     <path class="fil4" d="M916.83 1069.84c43.55,-18.89 88.02,-38.13 133.36,-57.82 0,-76.24 0.23,-152.86 0.23,-229.82 -45.57,22.52 -90.04,44.51 -133.59,66.12 0,74.2 0,148.03 0,221.52z"/>
     <path class="fil3" d="M1349.24 882.35c0,-82.41 0,-165.2 0,-248.41 -52.76,26.14 -104.4,51.77 -154.93,76.87 0,80 0,159.57 0,238.79 50.53,-21.96 102.17,-44.37 154.93,-67.25z"/>
     <path class="fil3" d="M2121.31 547.82c78.35,-34.03 159.4,-69.08 242.44,-105.03 0,-103.32 0,-207.13 0,-311.46 -83.04,41.08 -164.09,81.19 -242.44,120.09 0,99.29 0,198.08 0,296.4z"/>
     <path class="fil4" d="M118.71 3300.22c24.92,6.21 50.31,12.5 76.34,18.96 0,-56.35 0.23,-112.97 0.23,-169.85 -26.04,-4.9 -51.65,-9.71 -76.57,-14.45 0,55.37 0,110.5 0,165.34z"/>
     <path class="fil4" d="M2130.29 3799.07c75.66,18.71 153.56,38.07 233.46,57.82 0,-99.84 0,-200.21 0,-300.55 -80.37,-14.54 -158.25,-28.74 -234.14,-43.01 0,95.65 0.45,190.92 0.68,285.74z"/>
     <path class="fil4" d="M2363.75 1674.72c0,-100.34 0,-200.68 0,-301.54 -80.37,20.35 -158.72,39.78 -234.58,58.57 0,95.65 0,191.3 0,286.47 75.86,-13.77 153.77,-28.39 233.69,-43.36 0,0 0.45,-0.07 0.89,-0.14z"/>
     <path class="fil3" d="M2121.31 4092.75c78.56,24.33 159.4,49.39 242.44,74.6 0,-102.83 0,-206.15 0,-310.46 -79.9,-19.75 -157.8,-39.11 -233.46,-57.82 0,1.41 0,1.88 0,2.35 -2.93,-0.75 -6.07,-1.5 -8.98,-2.23 0,97.85 0,195.71 0,293.56z"/>
     <path class="fil4" d="M467.39 4158.59c32.99,16.45 66.9,33.18 101.47,50.29 0,-66.01 0,-132.32 0,-198.94 -34.57,-14.97 -68.48,-29.62 -101.47,-44.02 0,64.53 0,128.75 0,192.67z"/>
     <path class="fil2" d="M1050.19 1462.49c0,-73.68 0,-147.34 0,-221.4 -45.34,16.9 -89.81,33.37 -133.36,49.56 0,71.39 0,142.39 0,213.4 43.55,-13.56 88.02,-27.41 133.36,-41.56z"/>
     <path class="fil4" d="M568.86 1612.46c0,-64.08 0,-128.17 0,-192.56 -34.57,12.79 -68.26,25.32 -101.47,37.67 0,62.37 0,124.43 0,186.5 33.21,-10.37 66.9,-20.88 101.47,-31.61z"/>
    </g>
    <g>
     <path class="fil1" d="M2605.55 3799.76c0,97.85 0,195.7 0,293.11 74.31,-23.09 147.06,-45.67 218.44,-67.8 0,-93.37 0,-186.74 0.47,-280.2 -71.41,18.18 -144.6,36.37 -218.91,54.89zm219.57 236.27c0,90.2 0,180.41 0,270.59 68.26,-25.35 134.92,-50.15 200.49,-74.53 0,90.11 0,179.79 0,269.46 -200.49,86.94 -420.06,182.25 -661.86,287.22 0,103.81 0,207.15 0,309.98 316.56,-157.03 596.29,-295.72 845.27,-419.1 0,-85.48 0,-171.37 0,-257.68 57.02,-24.85 113.15,-49.2 168.6,-73.16 104.4,-45.36 204.08,-88.66 299.05,-129.89 45.12,-19.64 89.56,-38.9 133.35,-57.82 0,-73.49 0,-146.99 0,-220.86 83.52,-31.09 163.44,-60.82 239.99,-89.31 0,-65.91 0,-131.83 0,-197.72 -156.47,48.9 -328.45,102.62 -517.47,161.7 -210.37,65.76 -444.75,139.04 -707.42,221.12z"/>
     <path class="fil2" d="M3377.62 882.25c-168.6,-73.07 -352.01,-152.55 -552.5,-239.37 0,94.24 0,188.05 0,281.85 134.92,50.1 262.67,97.57 383.9,142.55 57.02,21.26 113.15,42.1 168.6,62.61 154.92,57.63 298.83,111.04 432.4,160.62 0,-73.49 0,-146.99 0,-220.86 0,-73.49 0,-147.34 0,-221.54 -88.44,-43.71 -180.73,-89.4 -277.04,-137.3 0,80 0,159.57 0,238.79 -50.96,-22.08 -102.82,-44.49 -155.36,-67.35z"/>
     <path class="fil3" d="M2605.55 1433.14c0,-97.86 0,-196.2 0,-294.52 0,-98.35 0,-196.67 0,-295.48 74.76,27.8 147.95,54.95 219.57,81.59 0,-93.8 0,-187.61 0,-281.85 -71.62,-31.09 -144.81,-62.79 -219.57,-95.22 0,-98.33 0,-197.14 0,-296.42 -79.01,-39.1 -159.38,-79.01 -241.8,-119.91 0,257.81 0,515.14 0,771.95 0,256.81 0,514.14 0,770.94 79.27,14.88 157.18,29.55 233.04,43.79 0,-95.67 0,-191.34 0,-287.01 2.7,0.64 5.64,1.39 8.76,2.14z"/>
     <path class="fil3" d="M3676.67 4218.92c0,76.62 0,152.86 0.23,228.75 175.34,-87.04 335.18,-166.28 481.33,-238.72 0,-65.98 0,-132.32 0,-198.94 -35.48,15.37 -71.38,31 -108.22,46.88 0,-68.54 0,-137.08 0,-205.96 -76.55,28.49 -156.47,58.22 -239.99,89.31 0,73.87 0,147.37 0,220.86 -43.79,18.92 -88.23,38.18 -133.35,57.82z"/>
     <path class="fil1" d="M4158.23 3619.44c0,63.76 0,127.52 0,191.3 34.35,-12.77 68.24,-25.39 101.47,-37.81 0,-61.73 0,-123.5 0,-185.24 -33.23,10.42 -67.12,21.03 -101.47,31.75zm285.79 -96.58c0,-0.05 0.23,-0.1 0.45,-0.17 28.51,-8.84 56.57,-17.55 84.43,-26.11 0,-58.41 0,-116.79 0,-175.17 -27.86,6.87 -55.92,13.84 -84.2,20.88 -0.23,60.19 -0.68,120.4 -0.68,180.57z"/>
     <path class="fil3" d="M4354.66 1673.68c0,-60.16 0,-120.33 0,-180.8 -31.21,-11.59 -62.86,-23.35 -94.96,-35.31 -101.47,-37.74 -209.91,-77.96 -325.52,-120.97 0,68.89 0,137.46 0,206.01 152.43,47.49 292.08,91 420.48,131.07z"/>
     <path class="fil3" d="M4354.66 1492.88c30.32,11.24 60.17,22.39 89.81,33.35 0,60.7 0,121.1 0,181.53 28.51,8.8 56.57,17.5 84.19,26.07 0,58.69 0,117.35 0,176.04 0.89,0.21 1.81,0.44 2.7,0.66 26.26,6.42 51.86,12.81 77.44,19.1 0,-114.05 0,-228.11 0,-342.44 -26.47,-9.76 -53.2,-19.66 -80.14,-29.66 0,-58.67 0,-117.35 0,-176.3 -55.89,-24.24 -113.83,-49.39 -174,-75.44 0,62.58 0,124.84 0,187.09z"/>
     <path class="fil1" d="M4259.7 3965.92c-33.23,14.47 -67.12,29.19 -101.47,44.09 0,66.62 0,132.96 0,198.94 101.47,-50.29 196.67,-97.5 286.47,-141.97 -0.23,-60.14 -0.23,-120.54 -0.23,-181.25 28.51,-12.34 56.57,-24.54 84.43,-36.56 0,-58.66 0,-117.35 0,-176.29 -27.86,10.3 -55.92,20.74 -84.43,31.32 -29.41,10.98 -59.49,22.13 -89.57,33.37 0,62.56 0,124.82 0,187.09 -31.21,13.52 -62.87,27.29 -95.2,41.26z"/>
     <path class="fil3" d="M2363.75 4788.77c241.8,-104.97 461.37,-200.28 661.86,-287.22 0,-89.67 0,-179.35 0,-269.46 -65.57,24.38 -132.23,49.18 -200.49,74.53 -71.62,26.68 -144.81,53.87 -219.57,81.7 0,-98.32 0,-196.66 0,-295.45 0,-97.41 0,-195.26 0,-293.11 -3.12,0.75 -6.06,1.5 -9.2,2.25 0,-0.5 0,-1.43 0,-2.84 -75.89,18.79 -153.56,38.06 -232.6,57.72 0,310.46 0,620.93 0,931.88z"/>
     <path class="fil1" d="M4444.02 1888.87c28.51,7.11 56.81,14.1 84.64,21 0,-58.69 0,-117.35 0,-176.04 -27.62,-8.57 -55.68,-17.27 -84.19,-26.07 -0.22,-0.05 -0.45,-0.1 -0.45,-0.1 0,60.38 0,120.81 0,181.21z"/>
     <path class="fil2" d="M3934.18 1123.46c0,71.26 0,142.2 0,213.14 115.61,43.01 224.05,83.23 325.52,120.97 0,-64.23 0,-128.43 0,-192.96 -33.44,-14.48 -67.35,-29.2 -101.47,-44.05 -35.48,-15.35 -71.62,-30.97 -108.22,-46.84 0,-68.54 0,-137.41 0,-206.64 -38.16,-18.84 -76.78,-38.03 -115.83,-57.46 0,71.61 0,142.9 0,213.84z"/>
     <path class="fil1" d="M4158.23 1220.56c34.12,14.85 68.03,29.57 101.47,44.05 32.1,13.93 63.75,27.66 94.96,41.18 60.17,26.05 118.11,51.2 174,75.44 0,-58.66 0,-117.63 0,-176.86 -113.83,-56.48 -236.86,-117.49 -370.43,-183.71 0,66.94 0,133.59 0,199.9z"/>
     <path class="fil1" d="M2825.12 642.88c200.49,86.82 383.9,166.3 552.5,239.37 0,-82.43 0,-165.24 0,-248.45 -228.77,-113.27 -484.24,-239.92 -772.07,-382.56 0,99.28 0,198.09 0,296.42 74.76,32.43 147.95,64.13 219.57,95.22z"/>
     <path class="fil3" d="M4259.7 3772.93c0,64.53 0,128.76 0,192.99 32.33,-13.97 63.99,-27.74 95.2,-41.26 0,-62.27 0,-124.53 0,-187.09 30.08,-11.24 60.16,-22.39 89.57,-33.37 0,-60.4 0,-120.82 0,-181.51 -0.22,0.07 -0.45,0.12 -0.45,0.17 0,2.63 0,4.95 0,7.27 -59.28,18.49 -120.57,37.64 -184.32,57.56 0,61.74 0,123.51 0,185.24z"/>
     <path class="fil2" d="M2824.9 1206.48c-71.4,-22.08 -144.59,-44.7 -219.35,-67.86 0,98.32 0,196.66 0,294.52 74.76,19 147.95,37.12 219.35,54.79 0,-93.82 0,-187.63 0,-281.45z"/>
     <path class="fil1" d="M3810.02 1503.93c0,-71.03 0,-142.03 0,-213.42 -133.57,-49.58 -277.48,-102.99 -432.4,-160.62 0,80.04 0,159.68 0,239.33 154.92,48.34 298.83,93.13 432.4,134.71z"/>
     <path class="fil3" d="M4444.7 4066.98c56.34,-28.06 111.13,-55.19 164.1,-81.33 0,-113.78 0,-228.13 0,-342.46 -26.47,9.76 -52.97,19.67 -79.9,29.69 0,58.94 0,117.63 0,176.29 -27.86,12.02 -55.92,24.22 -84.43,36.56 0,60.71 0,121.11 0.23,181.25z"/>
     <path class="fil3" d="M3377.62 4101.17c104.4,-38.88 204.08,-76 299.05,-111.34 0,-73.31 0,-146.64 0,-219.95 -94.97,29.71 -194.65,60.9 -299.05,93.56 0,79.25 0,158.49 0,237.73z"/>
     <path class="fil2" d="M4444.47 3704.2c28.51,-10.58 56.57,-21.02 84.43,-31.32 26.93,-10.02 53.43,-19.93 79.9,-29.69 0,-57.02 0,-114.04 0,-171.35 -26.47,8.12 -52.97,16.38 -79.9,24.74 -27.86,8.56 -55.92,17.27 -84.43,26.11 0,60.69 0,121.11 0,181.51z"/>
     <path class="fil2" d="M3377.62 4596.07c104.4,-51.84 204.08,-101.31 299.28,-148.4 -0.23,-75.89 -0.23,-152.13 -0.23,-228.75 -94.97,41.23 -194.65,84.53 -299.05,129.89 0,82.81 0,165.22 0,247.26z"/>
     <path class="fil1" d="M3209.02 1316.68c0,-83 0,-166 0,-249.4 -121.23,-44.98 -248.98,-92.45 -383.9,-142.55 0,91.09 0,181.74 0,272.39 134.92,42.03 262.67,81.85 383.9,119.56z"/>
     <path class="fil2" d="M4158.23 4010.01c34.35,-14.9 68.24,-29.62 101.47,-44.09 0,-64.23 0,-128.46 0,-192.99 -33.23,12.42 -67.12,25.04 -101.47,37.81 -35.48,13.18 -71.38,26.58 -108.22,40.19 0,68.88 0,137.42 0,205.96 36.84,-15.88 72.74,-31.51 108.22,-46.88z"/>
     <path class="fil2" d="M2825.12 4306.62c0,-90.18 0,-180.39 0,-270.59 -0.45,0.12 -0.66,0.21 -1.13,0.33 0,-3.61 0,-7.23 0,-11.29 -71.38,22.13 -144.13,44.71 -218.44,67.8 0,98.79 0,197.13 0,295.45 74.76,-27.83 147.95,-55.02 219.57,-81.7z"/>
     <path class="fil3" d="M3377.62 882.25c52.54,22.86 104.4,45.27 155.36,67.35 0,-79.22 0,-158.79 0,-238.79 -50.96,-25.22 -102.82,-50.85 -155.36,-77.01 0,83.21 0,166.02 0,248.45z"/>
     <path class="fil2" d="M4444.02 1707.66c0,0 0.23,0.05 0.45,0.1 0,-60.43 0,-120.83 0,-181.53 -29.64,-10.96 -59.49,-22.11 -89.81,-33.35 0,60.47 0,120.64 0,180.8 30.32,9.44 60.17,18.73 89.36,27.88 0,2.02 0,4.06 0,6.1z"/>
     <path class="fil4" d="M4050.01 3850.93c36.84,-13.61 72.74,-27.01 108.22,-40.19 0,-63.78 0,-127.54 0,-191.3 -35.48,11.08 -71.38,22.32 -108.22,33.77 0,65.89 0,131.81 0,197.72z"/>
     <path class="fil3" d="M3810.02 1290.51c41.98,15.61 83.3,30.95 124.16,46.09 0,-70.94 0,-141.88 0,-213.14 -40.86,-17.67 -82.18,-35.57 -124.16,-53.81 0,73.87 0,147.37 0,220.86z"/>
     <path class="fil4" d="M4259.7 1457.57c32.1,11.96 63.75,23.72 94.96,35.31 0,-62.25 0,-124.51 0,-187.09 -31.21,-13.52 -62.86,-27.25 -94.96,-41.18 0,64.53 0,128.73 0,192.96z"/>
     <path class="fil4" d="M2605.55 1138.62c74.76,23.16 147.95,45.78 219.35,67.86 0,-3.14 0,-6.31 0,-9.46 0,0 0,0 0.22,0.1 0,-90.65 0,-181.3 0,-272.39 -71.62,-26.64 -144.81,-53.79 -219.57,-81.59 0,98.81 0,197.13 0,295.48z"/>
     <path class="fil2" d="M3025.61 4232.09c62.18,-23.19 123.24,-45.88 183.41,-68.22 0,-82.57 0,-165.17 0,-247.75 -60.17,18.75 -121.23,37.83 -183.41,57.31 0,86.23 0,172.45 0,258.66z"/>
     <path class="fil4" d="M3209.02 4163.87c57.02,-21.3 113.15,-42.16 168.6,-62.7 0,-79.24 0,-158.48 0,-237.73 -55.45,17.25 -111.58,34.78 -168.6,52.68 0,82.58 0,165.18 0,247.75z"/>
     <path class="fil1" d="M4608.8 1587.19c0,-57.02 0,-114.07 0,-171.37 -26.47,-11.38 -53.2,-22.93 -80.14,-34.59 0,58.95 0,117.63 0,176.3 26.94,10 53.67,19.9 80.14,29.66z"/>
     <path class="fil4" d="M3810.02 1069.65c41.98,18.24 83.3,36.14 124.16,53.81 0,-70.94 0,-142.23 0,-213.84 -40.86,-20.18 -82.18,-40.67 -124.16,-61.51 0,74.2 0,148.05 0,221.54z"/>
     <path class="fil3" d="M4158.23 1220.56c0,-66.31 0,-132.96 0,-199.9 -35.48,-17.56 -71.62,-35.41 -108.22,-53.58 0,69.23 0,138.1 0,206.64 36.6,15.87 72.74,31.49 108.22,46.84z"/>
     <path class="fil3" d="M4528.66 1381.23c26.94,11.66 53.67,23.21 80.14,34.59 0,-57.02 0,-114.33 0,-171.91 -26.47,-13.02 -53.2,-26.21 -80.14,-39.54 0,59.23 0,118.2 0,176.86z"/>
     <path class="fil4" d="M2363.75 3856.89c79.04,-19.66 156.71,-38.93 232.6,-57.72 0,-94.73 0.44,-190.03 0.68,-285.77 -75.89,14.27 -153.8,28.96 -233.28,43.95 0,100.34 0,200.19 0,299.54z"/>
     <path class="fil4" d="M4532.02 3319.22c25.83,-6.43 51.41,-12.76 76.78,-19 0,-55.13 0,-110.5 0,-165.88 -25.58,5.02 -51.18,10.11 -77.23,15.01 0,56.93 0.23,113.53 0.45,169.87z"/>
     <path class="fil4" d="M4608.8 2095.79c0,-55.38 0,-110.78 0,-166.16 -25.58,-6.29 -51.18,-12.68 -77.44,-19.1 0,56.92 0,113.85 0,170.5 26.26,5.16 51.86,9.95 76.99,14.71 0,0 0.23,0.02 0.45,0.05z"/>
     <path class="fil3" d="M4528.9 3496.58c26.93,-8.36 53.43,-16.62 79.9,-24.74 0,-57.04 0,-114.06 0,-171.62 -25.37,6.24 -50.95,12.57 -76.78,19 0,0.85 0,1.13 0,1.41 -1.11,0.26 -2.23,0.52 -3.12,0.78 0,58.38 0,116.76 0,175.17z"/>
     <path class="fil4" d="M3209.02 4679.65c57.02,-28.42 113.15,-56.22 168.6,-83.58 0,-82.04 0,-164.45 0,-247.26 -55.45,23.96 -111.58,48.31 -168.6,73.16 0,86.31 0,172.2 0,257.68z"/>
     <path class="fil2" d="M3934.18 1542.61c0,-68.55 0,-137.12 0,-206.01 -40.86,-15.14 -82.18,-30.48 -124.16,-46.09 0,71.39 0,142.39 0,213.42 41.98,13.1 83.3,25.98 124.16,38.68z"/>
     <path class="fil4" d="M3377.62 1369.22c0,-79.65 0,-159.29 0,-239.33 -55.45,-20.51 -111.58,-41.35 -168.6,-62.61 0,83.4 0,166.4 0,249.4 57.02,17.85 113.15,35.34 168.6,52.54z"/>
    </g>
   </g>
  </g>
  <g id="_2142367721072">
   <polygon class="fil5" points="4239.18,3424.67 3590.34,3228.82 3590.34,3211.75 3590.33,3194.71 3590.31,3177.65 3590.31,3160.59 3590.3,3143.53 3590.3,3126.47 3590.29,3109.4 4239.13,3275.41 4239.14,3296.74 4239.14,3318.07 4239.15,3339.38 4239.15,3360.7 4239.17,3382.03 4239.18,3403.34 "/>
   <polygon class="fil6" points="4239.13,3275.41 3590.29,3109.4 3590.29,3092.36 3590.29,3075.3 3590.27,3058.24 3590.26,3041.19 3590.26,3024.13 3590.24,3007.07 3590.24,2990.02 4239.07,3126.18 4239.07,3147.49 4239.08,3168.81 4239.08,3190.14 4239.1,3211.45 4239.11,3232.78 4239.11,3254.1 "/>
   <polygon class="fil7" points="4239.07,3126.18 3590.24,2990.02 3590.23,2972.96 3590.23,2955.92 3590.23,2938.86 3590.23,2921.8 3590.23,2904.74 3590.23,2887.67 3590.23,2870.61 4239.05,2976.93 4239.05,2998.25 4239.05,3019.58 4239.05,3040.89 4239.05,3062.21 4239.05,3083.54 4239.05,3104.85 "/>
   <polygon class="fil8" points="4239.05,2976.93 3590.23,2870.61 3590.23,2853.57 3590.23,2836.51 3590.24,2819.45 3590.24,2802.4 3590.26,2785.34 3590.27,2768.28 3590.29,2751.23 4239.11,2827.69 4239.1,2849 4239.08,2870.33 4239.07,2891.65 4239.07,2912.96 4239.05,2934.29 4239.05,2955.61 "/>
   <polygon class="fil9" points="4239.11,2827.69 3590.29,2751.23 3590.29,2734.17 3590.31,2717.11 3590.33,2700.07 3590.34,2683.01 4239.2,2742.4 4239.17,2763.73 4239.15,2785.04 4239.13,2806.36 "/>
   <polygon class="fil10" points="4239.18,3424.67 3590.34,3228.82 3590.34,3211.75 3590.33,3194.71 3590.31,3177.65 3590.31,3160.59 3590.3,3143.53 3590.3,3126.47 3590.29,3109.4 3590.29,3092.36 3590.29,3075.3 3590.27,3058.24 3590.26,3041.19 3590.26,3024.13 3590.24,3007.07 3590.24,2990.02 3590.23,2972.96 3590.23,2955.92 3590.23,2938.86 3590.23,2921.8 3590.23,2904.74 3590.23,2887.67 3590.23,2870.61 3590.23,2853.57 3590.23,2836.51 3590.24,2819.45 3590.24,2802.4 3590.26,2785.34 3590.27,2768.28 3590.29,2751.23 3590.29,2734.17 3590.31,2717.11 3590.33,2700.07 3590.34,2683.01 4239.2,2742.4 4239.17,2763.73 4239.15,2785.04 4239.13,2806.36 4239.11,2827.69 4239.1,2849 4239.08,2870.33 4239.07,2891.65 4239.07,2912.96 4239.05,2934.29 4239.05,2955.61 4239.05,2976.93 4239.05,2998.25 4239.05,3019.58 4239.05,3040.89 4239.05,3062.21 4239.05,3083.54 4239.05,3104.85 4239.07,3126.18 4239.07,3147.49 4239.08,3168.81 4239.08,3190.14 4239.1,3211.45 4239.11,3232.78 4239.11,3254.1 4239.13,3275.41 4239.14,3296.74 4239.14,3318.07 4239.15,3339.38 4239.15,3360.7 4239.17,3382.03 4239.18,3403.34 "/>
   <polygon class="fil11" points="2982.17,3736.95 2584.72,3478.64 2584.74,3422.21 2584.82,3365.85 2982.28,3595.96 2982.18,3666.42 "/>
   <polygon class="fil12" points="2982.28,3595.96 2584.82,3365.85 2584.95,3309.54 2585.15,3253.3 2982.7,3455.27 2982.46,3525.57 "/>
   <polygon class="fil13" points="2982.7,3455.27 2585.15,3253.3 2585.4,3197.08 2585.68,3140.92 2983.36,3314.8 2983,3385 "/>
   <polygon class="fil14" points="2983.36,3314.8 2585.68,3140.92 2586.01,3084.82 2586.37,3028.71 2984.23,3174.55 2983.78,3244.66 "/>
   <polygon class="fil15" points="2984.23,3174.55 2586.37,3028.71 2586.77,2972.68 2587.22,2916.65 2985.28,3034.47 2984.74,3104.5 "/>
   <polygon class="fil16" points="2985.28,3034.47 2587.22,2916.65 2587.68,2860.66 2588.15,2804.69 2986.44,2894.52 2985.86,2964.48 "/>
   <polygon class="fil17" points="2986.44,2894.52 2588.15,2804.69 2588.64,2748.74 2589.16,2692.8 2987.71,2754.65 2987.06,2824.58 "/>
   <polygon class="fil18" points="2987.71,2754.65 2589.16,2692.8 2589.67,2636.86 2590.19,2580.94 2989,2614.82 2988.35,2684.72 "/>
   <polygon class="fil19" points="2989,2614.82 2590.19,2580.94 2590.72,2525.03 2591.24,2469.09 2990.3,2475 2989.66,2544.91 "/>
   <polygon class="fil20" points="2990.3,2475 2591.24,2469.09 2591.74,2413.16 2592.23,2357.21 2991.55,2335.16 2990.93,2405.08 "/>
   <polygon class="fil21" points="2991.55,2335.16 2592.23,2357.21 2592.71,2301.25 2593.17,2245.27 2992.73,2195.22 2992.15,2265.2 "/>
   <polygon class="fil22" points="2992.73,2195.22 2593.17,2245.27 2593.6,2189.27 2594,2133.24 2993.76,2055.19 2993.26,2125.22 "/>
   <polygon class="fil23" points="2993.76,2055.19 2594,2133.24 2594.38,2077.2 2594.71,2021.1 2994.65,1915 2994.23,1985.12 "/>
   <polygon class="fil24" points="2994.65,1915 2594.71,2021.1 2594.99,1964.96 2595.24,1908.79 2995.31,1774.62 2995.01,1844.84 "/>
   <polygon class="fil25" points="2995.31,1774.62 2595.24,1908.79 2595.44,1852.57 2595.57,1796.3 2995.72,1634.01 2995.55,1704.35 "/>
   <polygon class="fil26" points="2995.72,1634.01 2595.57,1796.3 2595.65,1739.97 2595.67,1683.58 2995.84,1493.12 2995.82,1563.6 "/>
   <polygon class="fil10" points="2982.17,3736.95 2584.72,3478.64 2584.74,3422.21 2584.82,3365.85 2584.95,3309.54 2585.15,3253.3 2585.4,3197.08 2585.68,3140.92 2586.01,3084.82 2586.37,3028.71 2586.77,2972.68 2587.22,2916.65 2587.68,2860.66 2588.15,2804.69 2588.64,2748.74 2589.16,2692.8 2589.67,2636.86 2590.19,2580.94 2590.72,2525.03 2591.24,2469.09 2591.74,2413.16 2592.23,2357.21 2592.71,2301.25 2593.17,2245.27 2593.6,2189.27 2594,2133.24 2594.38,2077.2 2594.71,2021.1 2594.99,1964.96 2595.24,1908.79 2595.44,1852.57 2595.57,1796.3 2595.65,1739.97 2595.67,1683.58 2995.84,1493.12 2995.82,1563.6 2995.72,1634.01 2995.55,1704.35 2995.31,1774.62 2995.01,1844.84 2994.65,1915 2994.23,1985.12 2993.76,2055.19 2993.26,2125.22 2992.73,2195.22 2992.15,2265.2 2991.55,2335.16 2990.93,2405.08 2990.3,2475 2989.66,2544.91 2989,2614.82 2988.35,2684.72 2987.71,2754.65 2987.06,2824.58 2986.44,2894.52 2985.86,2964.48 2985.28,3034.47 2984.74,3104.5 2984.23,3174.55 2983.78,3244.66 2983.36,3314.8 2983,3385 2982.7,3455.27 2982.46,3525.57 2982.28,3595.96 2982.18,3666.42 "/>
   <polygon class="fil27" points="4239.13,2438.36 3590.29,2439.78 3590.29,2424.62 3590.29,2409.47 3590.29,2394.32 3590.29,2379.17 3590.29,2364.01 3590.27,2348.86 3590.27,2333.71 3590.27,2318.55 4239.1,2286.83 4239.1,2305.77 4239.1,2324.71 4239.11,2343.66 4239.11,2362.6 4239.11,2381.54 4239.11,2400.47 4239.13,2419.41 "/>
   <polygon class="fil28" points="4239.1,2286.83 3590.27,2318.55 3590.26,2303.42 3590.26,2288.25 3590.26,2273.11 3590.26,2257.94 3590.24,2242.79 3590.24,2227.65 3590.24,2212.5 3590.24,2197.35 4239.07,2135.31 4239.07,2154.26 4239.07,2173.2 4239.07,2192.13 4239.08,2211.07 4239.08,2230.01 4239.08,2248.96 4239.08,2267.9 "/>
   <polygon class="fil29" points="4239.07,2135.31 3590.24,2197.35 3590.23,2182.19 3590.23,2167.04 3590.23,2151.89 3590.23,2136.74 3590.23,2121.58 3590.23,2106.43 3590.23,2091.28 3590.21,2076.12 4239.03,1983.79 4239.04,2002.73 4239.04,2021.67 4239.04,2040.61 4239.04,2059.56 4239.05,2078.5 4239.05,2097.43 4239.05,2116.37 "/>
   <polygon class="fil30" points="4239.03,1983.79 3590.21,2076.12 3590.21,2060.98 3590.21,2045.82 3590.2,2030.67 3590.2,2015.51 3590.2,2000.36 3590.2,1985.21 3590.19,1970.06 3590.19,1954.92 4239,1832.27 4239,1851.22 4239.01,1870.16 4239.01,1889.09 4239.01,1908.03 4239.01,1926.97 4239.03,1945.92 4239.03,1964.86 "/>
   <polygon class="fil10" points="4239.13,2438.36 3590.29,2439.78 3590.29,2424.62 3590.29,2409.47 3590.29,2394.32 3590.29,2379.17 3590.29,2364.01 3590.27,2348.86 3590.27,2333.71 3590.27,2318.55 3590.26,2303.42 3590.26,2288.25 3590.26,2273.11 3590.26,2257.94 3590.24,2242.79 3590.24,2227.65 3590.24,2212.5 3590.24,2197.35 3590.23,2182.19 3590.23,2167.04 3590.23,2151.89 3590.23,2136.74 3590.23,2121.58 3590.23,2106.43 3590.23,2091.28 3590.21,2076.12 3590.21,2060.98 3590.21,2045.82 3590.2,2030.67 3590.2,2015.51 3590.2,2000.36 3590.2,1985.21 3590.19,1970.06 3590.19,1954.92 4239,1832.27 4239,1851.22 4239.01,1870.16 4239.01,1889.09 4239.01,1908.03 4239.01,1926.97 4239.03,1945.92 4239.03,1964.86 4239.03,1983.79 4239.04,2002.73 4239.04,2021.67 4239.04,2040.61 4239.04,2059.56 4239.05,2078.5 4239.05,2097.43 4239.05,2116.37 4239.07,2135.31 4239.07,2154.26 4239.07,2173.2 4239.07,2192.13 4239.08,2211.07 4239.08,2230.01 4239.08,2248.96 4239.08,2267.9 4239.1,2286.83 4239.1,2305.77 4239.1,2324.71 4239.11,2343.66 4239.11,2362.6 4239.11,2381.54 4239.11,2400.47 4239.13,2419.41 "/>
  </g>
  <path class="fil31" d="M4541.87 1917.29c0.06,475 0.17,949.98 0.25,1424.99 -101.02,27.42 -201.95,54.94 -302.94,82.39 -0.07,-227.43 -0.27,-454.85 0.02,-682.27 -217.01,9.67 -434.03,19.34 -651.05,29.02 0.07,271.5 0.14,543 0.21,814.49 -202.08,55.02 -404.17,95.97 -606.19,151.04 -0.25,-752.77 13.9,-1491.64 13.67,-2243.83 202.15,56.83 390,99.54 592.18,156.33 0.06,249.05 0.13,498.08 0.2,747.15 216.95,13.93 433.94,27.85 650.91,41.76 -0.05,-202.03 -0.09,-404.06 -0.13,-606.09 100.94,28.36 201.88,56.74 302.87,85.02z"/>
  <g id="_2142373547280">
   <g>
    <polygon class="fil32" points="1634.37,1501.58 2058.38,1720.06 2070.83,1729.1 2081.71,1740.38 2091.14,1753.83 2099.15,1769.27 2105.88,1786.65 2111.37,1805.88 1700.6,1608.85 1693.74,1584.83 1685.34,1563.09 1675.3,1543.78 1663.53,1526.99 1649.92,1512.88 "/>
    <polygon class="fil33" points="1700.6,1608.85 2111.37,1805.88 2115.69,1826.81 2118.93,1849.36 2121.17,1873.42 2122.49,1898.87 1714.5,1725.1 1712.86,1693.27 1710.07,1663.21 1706,1635.02 "/>
    <polygon class="fil34" points="1714.5,1725.1 2122.49,1898.87 2122.96,1925.63 2123.02,1944.87 2123.09,1963.69 2123.18,1982.11 2123.28,2000.15 2123.41,2017.8 1715.65,1873.75 1715.49,1851.68 1715.36,1829.14 1715.24,1806.11 1715.16,1782.59 1715.08,1758.55 "/>
    <polygon class="fil35" points="1715.65,1873.75 2123.41,2017.8 2123.54,2035.09 2123.67,2052.04 2123.83,2068.64 2123.98,2084.92 2124.14,2100.89 2124.3,2116.58 2124.46,2131.95 1716.97,2016.44 1716.77,1997.22 1716.58,1977.62 1716.37,1957.66 1716.18,1937.3 1715.99,1916.55 1715.82,1895.36 "/>
    <polygon class="fil36" points="1716.97,2016.44 2124.46,2131.95 2124.61,2147.07 2124.76,2161.92 2124.9,2176.54 2125.02,2190.9 2125.14,2205.05 2125.25,2218.98 2125.33,2232.73 2125.4,2246.29 1718.14,2159.36 1718.05,2142.41 1717.95,2125.23 1717.82,2107.82 1717.67,2090.13 1717.51,2072.17 1717.34,2053.91 1717.16,2035.34 "/>
    <polygon class="fil37" points="1718.14,2159.36 2125.4,2246.29 2125.44,2259.67 2125.47,2272.89 2125.47,2285.97 2125.44,2298.92 2125.39,2311.75 2125.31,2324.47 2125.18,2337.09 2125.02,2349.64 2124.83,2362.1 1717.42,2304.13 1717.67,2288.55 1717.86,2272.86 1718.02,2257.09 1718.13,2241.19 1718.2,2225.15 1718.23,2208.98 1718.23,2192.62 1718.2,2176.09 "/>
    <polygon class="fil38" points="1717.42,2304.13 2124.83,2362.1 2124.6,2374.51 2124.32,2386.88 2124,2399.22 2122.47,2414.7 2118.96,2429.04 2113.7,2442.29 2106.89,2454.44 2098.8,2465.53 1684.89,2433.41 1695.01,2419.56 1703.51,2404.36 1710.09,2387.8 1714.48,2369.87 1716.39,2350.53 1716.78,2335.11 1717.13,2319.65 "/>
    <polygon class="fil39" points="1684.89,2433.41 2098.8,2465.53 2089.63,2475.59 2079.62,2484.63 2069.02,2492.68 2058.03,2499.75 2046.89,2505.88 2035.86,2511.08 2025.14,2515.38 2014.97,2518.8 2005.58,2521.36 1568.36,2503.2 1580.11,2500.01 1592.82,2495.72 1606.22,2490.36 1620.02,2483.85 1633.93,2476.19 1647.65,2467.34 1660.92,2457.29 1673.43,2445.99 "/>
    <polygon class="fil40" points="1568.36,2503.2 2005.58,2521.36 1997.2,2523.08 1990.06,2524 1974.62,2525.16 1963.21,2525.93 1955.47,2526.46 1951.13,2526.83 1949.87,2527.23 1951.4,2527.75 1955.43,2528.54 1961.63,2529.73 1969.71,2531.45 1979.36,2533.84 1990.28,2537.04 2002.17,2541.14 1564.1,2527.94 1549.24,2522.8 1535.59,2518.81 1523.52,2515.83 1513.42,2513.67 1505.68,2512.18 1500.65,2511.19 1498.73,2510.53 1500.3,2510.04 1505.73,2509.57 1515.4,2508.93 1529.68,2507.96 1548.96,2506.5 1557.88,2505.36 "/>
    <polygon class="fil41" points="1564.1,2527.94 2002.17,2541.14 2014.72,2546.32 2027.64,2552.7 2040.63,2560.38 2053.36,2569.53 2063.98,2578.37 2074.25,2587.83 2084.13,2597.94 2093.56,2608.76 1678.35,2612.48 1666.56,2598.95 1654.21,2586.3 1641.36,2574.46 1628.09,2563.42 1612.18,2551.98 1595.95,2542.38 1579.8,2534.41 "/>
    <polygon class="fil42" points="1678.35,2612.48 2093.56,2608.76 2102.52,2620.34 2110.93,2632.68 2118.76,2645.86 2125.97,2659.88 2132.51,2674.79 2138.33,2690.65 2143.38,2707.47 1740.61,2735.85 1734.31,2714.83 1727.04,2695.01 1718.86,2676.36 1709.85,2658.83 1700.06,2642.38 1689.54,2626.94 "/>
    <polygon class="fil43" points="1740.61,2735.85 2143.38,2707.47 2147.61,2725.31 2150.99,2744.19 2153.46,2764.16 2154.98,2785.27 2155.49,2807.54 2155.51,2820.74 1755.77,2877.45 1755.76,2860.94 1755.11,2833.11 1753.21,2806.72 1750.12,2781.76 1745.91,2758.15 "/>
    <polygon class="fil44" points="1755.77,2877.45 2155.51,2820.74 2155.54,2834.29 2155.6,2848.16 2155.67,2862.34 2155.74,2876.82 2155.85,2891.58 2155.96,2906.59 2156.06,2921.84 2156.2,2937.33 1756.63,3023.18 1756.47,3003.82 1756.34,2984.76 1756.19,2966 1756.08,2947.55 1755.97,2929.45 1755.89,2911.71 1755.81,2894.38 "/>
    <polygon class="fil45" points="1756.63,3023.18 2156.2,2937.33 2156.31,2953 2156.43,2968.88 2156.55,2984.92 2156.66,3001.13 2156.75,3017.47 2156.85,3033.92 2156.93,3050.49 1757.55,3164.62 1757.45,3143.93 1757.34,3123.35 1757.22,3102.92 1757.07,3082.68 1756.93,3062.62 1756.78,3042.77 "/>
    <polygon class="fil46" points="1757.55,3164.62 2156.93,3050.49 2156.99,3067.14 2157.03,3083.85 2157.06,3100.62 2157.06,3117.41 2157.03,3134.24 2156.97,3151.05 2156.88,3167.84 1757.5,3311.32 1757.6,3290.33 1757.67,3269.31 1757.72,3248.28 1757.72,3227.29 1757.69,3206.33 1757.63,3185.44 "/>
    <polygon class="fil47" points="1757.5,3311.32 2156.88,3167.84 2156.75,3184.61 2156.61,3201.32 2156.4,3217.97 2156.15,3234.52 2155.87,3250.97 2155.55,3267.28 2155.16,3283.49 1755.35,3455.88 1755.83,3435.63 1756.24,3415.23 1756.59,3394.67 1756.9,3373.97 1757.15,3353.17 1757.34,3332.28 "/>
    <polygon class="fil48" points="1755.35,3455.88 2155.16,3283.49 2154.75,3299.52 2154.25,3315.38 2152.67,3335.01 2149.32,3353.53 2144.3,3370.9 2137.69,3387.04 1733.5,3585.31 1741.77,3565.14 1748.05,3543.43 1752.23,3520.27 1754.2,3495.74 1754.82,3475.92 "/>
    <polygon class="fil49" points="1733.5,3585.31 2137.69,3387.04 2129.57,3401.89 2120.05,3415.38 2109.22,3427.45 2097.16,3438.04 2083.98,3447.08 2069.75,3454.48 1648.57,3669.63 1666.37,3660.36 1682.84,3649.06 1697.91,3635.83 1711.46,3620.74 1723.35,3603.88 "/>
    <polygon class="fil50" points="1634.37,1501.58 2058.38,1720.06 2070.83,1729.1 2081.71,1740.38 2091.14,1753.83 2099.15,1769.27 2105.88,1786.65 2111.37,1805.88 2115.69,1826.81 2118.93,1849.36 2121.17,1873.42 2122.49,1898.87 2122.96,1925.63 2123.02,1944.87 2123.09,1963.69 2123.18,1982.11 2123.28,2000.15 2123.41,2017.8 2123.54,2035.09 2123.67,2052.04 2123.83,2068.64 2123.98,2084.92 2124.14,2100.89 2124.3,2116.58 2124.46,2131.95 2124.61,2147.07 2124.76,2161.92 2124.9,2176.54 2125.02,2190.9 2125.14,2205.05 2125.25,2218.98 2125.33,2232.73 2125.4,2246.29 2125.44,2259.67 2125.47,2272.89 2125.47,2285.97 2125.44,2298.92 2125.39,2311.75 2125.31,2324.47 2125.18,2337.09 2125.02,2349.64 2124.83,2362.1 2124.6,2374.51 2124.32,2386.88 2124,2399.22 2122.47,2414.7 2118.96,2429.04 2113.7,2442.29 2106.89,2454.44 2098.8,2465.53 2089.63,2475.59 2079.62,2484.63 2069.02,2492.68 2058.03,2499.75 2046.89,2505.88 2035.86,2511.08 2025.14,2515.38 2014.97,2518.8 2005.58,2521.36 1997.2,2523.08 1990.06,2524 1974.62,2525.16 1963.21,2525.93 1955.47,2526.46 1951.13,2526.83 1949.87,2527.23 1951.4,2527.75 1955.43,2528.54 1961.63,2529.73 1969.71,2531.45 1979.36,2533.84 1990.28,2537.04 2002.17,2541.14 2014.72,2546.32 2027.64,2552.7 2040.63,2560.38 2053.36,2569.53 2063.98,2578.37 2074.25,2587.83 2084.13,2597.94 2093.56,2608.76 2102.52,2620.34 2110.93,2632.68 2118.76,2645.86 2125.97,2659.88 2132.51,2674.79 2138.33,2690.65 2143.38,2707.47 2147.61,2725.31 2150.99,2744.19 2153.46,2764.16 2154.98,2785.27 2155.49,2807.54 2155.51,2820.74 2155.54,2834.29 2155.6,2848.16 2155.67,2862.34 2155.74,2876.82 2155.85,2891.58 2155.96,2906.59 2156.06,2921.84 2156.2,2937.33 2156.31,2953 2156.43,2968.88 2156.55,2984.92 2156.66,3001.13 2156.75,3017.47 2156.85,3033.92 2156.93,3050.49 2156.99,3067.14 2157.03,3083.85 2157.06,3100.62 2157.06,3117.41 2157.03,3134.24 2156.97,3151.05 2156.88,3167.84 2156.75,3184.61 2156.61,3201.32 2156.4,3217.97 2156.15,3234.52 2155.87,3250.97 2155.55,3267.28 2155.16,3283.49 2154.75,3299.52 2154.25,3315.38 2152.67,3335.01 2149.32,3353.53 2144.3,3370.9 2137.69,3387.04 2129.57,3401.89 2120.05,3415.38 2109.22,3427.45 2097.16,3438.04 2083.98,3447.08 2069.75,3454.48 1648.57,3669.63 1666.37,3660.36 1682.84,3649.06 1697.91,3635.83 1711.46,3620.74 1723.35,3603.88 1733.5,3585.31 1741.77,3565.14 1748.05,3543.43 1752.23,3520.27 1754.2,3495.74 1754.82,3475.92 1755.35,3455.88 1755.83,3435.63 1756.24,3415.23 1756.59,3394.67 1756.9,3373.97 1757.15,3353.17 1757.34,3332.28 1757.5,3311.32 1757.6,3290.33 1757.67,3269.31 1757.72,3248.28 1757.72,3227.29 1757.69,3206.33 1757.63,3185.44 1757.55,3164.62 1757.45,3143.93 1757.34,3123.35 1757.22,3102.92 1757.07,3082.68 1756.93,3062.62 1756.78,3042.77 1756.63,3023.18 1756.47,3003.82 1756.34,2984.76 1756.19,2966 1756.08,2947.55 1755.97,2929.45 1755.89,2911.71 1755.81,2894.38 1755.77,2877.45 1755.76,2860.94 1755.11,2833.11 1753.21,2806.72 1750.12,2781.76 1745.91,2758.15 1740.61,2735.85 1734.31,2714.83 1727.04,2695.01 1718.86,2676.36 1709.85,2658.83 1700.06,2642.38 1689.54,2626.94 1678.35,2612.48 1666.56,2598.95 1654.21,2586.3 1641.36,2574.46 1628.09,2563.42 1612.18,2551.98 1595.95,2542.38 1579.8,2534.41 1564.1,2527.94 1549.24,2522.8 1535.59,2518.81 1523.52,2515.83 1513.42,2513.67 1505.68,2512.18 1500.65,2511.19 1498.73,2510.53 1500.3,2510.04 1505.73,2509.57 1515.4,2508.93 1529.68,2507.96 1548.96,2506.5 1557.88,2505.36 1568.36,2503.2 1580.11,2500.01 1592.82,2495.72 1606.22,2490.36 1620.02,2483.85 1633.93,2476.19 1647.65,2467.34 1660.92,2457.29 1673.43,2445.99 1684.89,2433.41 1695.01,2419.56 1703.51,2404.36 1710.09,2387.8 1714.48,2369.87 1716.39,2350.53 1716.78,2335.11 1717.13,2319.65 1717.42,2304.13 1717.67,2288.55 1717.86,2272.86 1718.02,2257.09 1718.13,2241.19 1718.2,2225.15 1718.23,2208.98 1718.23,2192.62 1718.2,2176.09 1718.14,2159.36 1718.05,2142.41 1717.95,2125.23 1717.82,2107.82 1717.67,2090.13 1717.51,2072.17 1717.34,2053.91 1717.16,2035.34 1716.97,2016.44 1716.77,1997.22 1716.58,1977.62 1716.37,1957.66 1716.18,1937.3 1715.99,1916.55 1715.82,1895.36 1715.65,1873.75 1715.49,1851.68 1715.36,1829.14 1715.24,1806.11 1715.16,1782.59 1715.08,1758.55 1714.5,1725.1 1712.86,1693.27 1710.07,1663.21 1706,1635.02 1700.6,1608.85 1693.74,1584.83 1685.34,1563.09 1675.3,1543.78 1663.53,1526.99 1649.92,1512.88 "/>
    <polygon class="fil51" points="1002.46,1990.9 1552.86,2111.52 1538.82,2109.07 1524.04,2107.85 1508.71,2107.68 1493,2108.44 1477.08,2109.93 1461.16,2112.01 1445.38,2114.54 868.12,1994.68 887.84,1991.53 907.75,1988.92 927.65,1987.05 947.28,1986.11 966.45,1986.32 984.91,1987.84 "/>
    <polygon class="fil52" points="868.12,1994.68 1445.38,2114.54 1429.94,2117.33 1414.55,2120.32 1398.02,2123.67 1380.54,2127.29 1362.29,2131.19 1343.45,2135.26 740.7,2020.59 764.26,2015.49 787.07,2010.63 808.92,2006.08 829.58,2001.9 848.82,1998.17 "/>
    <polygon class="fil53" points="740.7,2020.59 1343.45,2135.26 1324.2,2139.5 1304.71,2143.84 1285.18,2148.23 1265.76,2152.61 1246.67,2156.96 619.73,2047.69 643.6,2042.27 667.86,2036.78 692.28,2031.31 716.64,2025.88 "/>
    <polygon class="fil54" points="619.73,2047.69 1246.67,2156.96 1228.08,2161.19 1210.12,2165.3 1193.05,2169.19 1176.99,2172.85 1162.15,2176.21 1148.71,2179.21 497.27,2075.53 514.08,2071.76 532.63,2067.56 552.71,2062.99 574.05,2058.12 596.48,2053 "/>
    <polygon class="fil55" points="1002.46,1990.9 1552.86,2111.52 1538.82,2109.07 1524.04,2107.85 1508.71,2107.68 1493,2108.44 1477.08,2109.93 1461.16,2112.01 1445.38,2114.54 1429.94,2117.33 1414.55,2120.32 1398.02,2123.67 1380.54,2127.29 1362.29,2131.19 1343.45,2135.26 1324.2,2139.5 1304.71,2143.84 1285.18,2148.23 1265.76,2152.61 1246.67,2156.96 1228.08,2161.19 1210.12,2165.3 1193.05,2169.19 1176.99,2172.85 1162.15,2176.21 1148.71,2179.21 497.27,2075.53 514.08,2071.76 532.63,2067.56 552.71,2062.99 574.05,2058.12 596.48,2053 619.73,2047.69 643.6,2042.27 667.86,2036.78 692.28,2031.31 716.64,2025.88 740.7,2020.59 764.26,2015.49 787.07,2010.63 808.92,2006.08 829.58,2001.9 848.82,1998.17 868.12,1994.68 887.84,1991.53 907.75,1988.92 927.65,1987.05 947.28,1986.11 966.45,1986.32 984.91,1987.84 "/>
    <polygon class="fil56" points="497.27,2075.53 1148.71,2179.21 1148.71,2196.03 1148.71,2212.38 1148.71,2228.33 1148.71,2243.99 1148.71,2259.38 1148.71,2274.59 1148.71,2289.65 497.27,2213.57 497.27,2194.73 497.27,2175.73 497.27,2156.49 497.27,2136.93 497.27,2116.98 497.27,2096.53 "/>
    <polygon class="fil57" points="497.27,2213.57 1148.71,2289.65 1148.69,2304.66 1148.69,2319.68 1148.68,2334.75 1148.66,2349.96 1148.66,2365.37 1148.65,2381.04 1148.63,2397.02 497.18,2347.78 497.2,2327.8 497.21,2308.22 497.23,2288.96 497.24,2269.95 497.26,2251.11 497.26,2232.33 "/>
    <polygon class="fil58" points="497.18,2347.78 1148.63,2397.02 1148.61,2413.39 1148.59,2430.22 497.13,2389.27 497.15,2368.24 "/>
    <polygon class="fil59" points="497.27,2075.53 1148.71,2179.21 1148.71,2196.03 1148.71,2212.38 1148.71,2228.33 1148.71,2243.99 1148.71,2259.38 1148.71,2274.59 1148.71,2289.65 1148.69,2304.66 1148.69,2319.68 1148.68,2334.75 1148.66,2349.96 1148.66,2365.37 1148.65,2381.04 1148.63,2397.02 1148.61,2413.39 1148.59,2430.22 497.13,2389.27 497.15,2368.24 497.18,2347.78 497.2,2327.8 497.21,2308.22 497.23,2288.96 497.24,2269.95 497.26,2251.11 497.26,2232.33 497.27,2213.57 497.27,2194.73 497.27,2175.73 497.27,2156.49 497.27,2136.93 497.27,2116.98 497.27,2096.53 "/>
    <polygon class="fil60" points="497.18,3012.14 1148.63,2928.5 1163.25,2931.8 1178.22,2935.41 1193.49,2939.28 1209.06,2943.35 1224.89,2947.59 1240.98,2951.96 1257.31,2956.38 633.02,3046.99 612.62,3041.46 592.5,3036.01 572.7,3030.71 553.25,3025.61 534.15,3020.78 515.46,3016.28 "/>
    <polygon class="fil61" points="633.02,3046.99 1257.31,2956.38 1273.85,2960.85 1290.59,2965.3 1307.5,2969.68 1324.58,2973.96 1341.77,2978.11 1359.07,2982.05 760.23,3079.08 738.6,3074.16 717.1,3068.98 695.77,3063.63 674.63,3058.14 653.71,3052.58 "/>
    <polygon class="fil62" points="760.23,3079.08 1359.07,2982.05 1376.48,2985.74 1393.95,2989.16 1411.48,2992.24 1432.25,2995.63 1451.98,2998.66 1470.6,3001.19 899.64,3103 876.35,3099.85 851.7,3096.06 825.75,3091.82 803.83,3087.97 781.99,3083.7 "/>
    <polygon class="fil63" points="899.64,3103 1470.6,3001.19 1488.13,3003.06 1504.48,3004.15 1519.67,3004.29 1533.64,3003.34 1546.37,3001.19 994.34,3103 978.44,3105.7 960.97,3106.88 942,3106.7 921.55,3105.35 "/>
    <polygon class="fil64" points="497.18,3012.14 1148.63,2928.5 1163.25,2931.8 1178.22,2935.41 1193.49,2939.28 1209.06,2943.35 1224.89,2947.59 1240.98,2951.96 1257.31,2956.38 1273.85,2960.85 1290.59,2965.3 1307.5,2969.68 1324.58,2973.96 1341.77,2978.11 1359.07,2982.05 1376.48,2985.74 1393.95,2989.16 1411.48,2992.24 1432.25,2995.63 1451.98,2998.66 1470.6,3001.19 1488.13,3003.06 1504.48,3004.15 1519.67,3004.29 1533.64,3003.34 1546.37,3001.19 994.34,3103 978.44,3105.7 960.97,3106.88 942,3106.7 921.55,3105.35 899.64,3103 876.35,3099.85 851.7,3096.06 825.75,3091.82 803.83,3087.97 781.99,3083.7 760.23,3079.08 738.6,3074.16 717.1,3068.98 695.77,3063.63 674.63,3058.14 653.71,3052.58 633.02,3046.99 612.62,3041.46 592.5,3036.01 572.7,3030.71 553.25,3025.61 534.15,3020.78 515.46,3016.28 "/>
    <polygon class="fil65" points="497.15,2673.05 1148.61,2657.23 1148.61,2675.04 1148.61,2692.51 1148.61,2709.68 1148.62,2726.62 1148.62,2743.34 1148.62,2759.93 497.17,2801.44 497.17,2780.7 497.17,2759.78 497.15,2738.63 497.15,2717.16 497.15,2695.32 "/>
    <polygon class="fil66" points="497.17,2801.44 1148.62,2759.93 1148.62,2776.42 1148.62,2792.86 1148.62,2809.29 1148.62,2825.8 1148.62,2842.37 1148.62,2859.11 1148.63,2876.03 497.18,2946.56 497.17,2925.41 497.17,2904.49 497.17,2883.76 497.17,2863.14 497.17,2842.6 497.17,2822.05 "/>
    <polygon class="fil67" points="497.18,2946.56 1148.63,2876.03 1148.63,2893.22 1148.63,2910.69 1148.63,2928.5 497.18,3012.14 497.18,2989.87 497.18,2968.05 "/>
    <polygon class="fil68" points="497.15,2673.05 1148.61,2657.23 1148.61,2675.04 1148.61,2692.51 1148.61,2709.68 1148.62,2726.62 1148.62,2743.34 1148.62,2759.93 1148.62,2776.42 1148.62,2792.86 1148.62,2809.29 1148.62,2825.8 1148.62,2842.37 1148.62,2859.11 1148.63,2876.03 1148.63,2893.22 1148.63,2910.69 1148.63,2928.5 497.18,3012.14 497.18,2989.87 497.18,2968.05 497.18,2946.56 497.17,2925.41 497.17,2904.49 497.17,2883.76 497.17,2863.14 497.17,2842.6 497.17,2822.05 497.17,2801.44 497.17,2780.7 497.17,2759.78 497.15,2738.63 497.15,2717.16 497.15,2695.32 "/>
   </g>
   <path class="fil69" d="M1641.83 2563.42c71.83,56.93 127.66,145.07 127.66,297.53 0,173.65 5.31,424.57 -1.55,634.78 -4.39,134.35 -108.17,213.74 -233.21,182.44 -163.38,-40.91 -1050.58,-257.65 -1338.95,-339.65l-2.51 -223.2 -3.21 -284.88 -4.74 -420.3 0 -0.6 -0.6 -53.33 -5.56 -492.82c358.82,-105.82 944.09,-275.38 1358.89,-371.63 148.72,-34.51 190.33,84.29 190.77,266.79 0.6,259.25 5.89,427.64 1.3,591.98 -2.97,106.99 -124.49,152.54 -167.43,155.98 -116.84,9.35 -4.3,-9.21 79.14,56.91zm-1130.97 -174.15c84.81,-0.79 300.14,-9.11 399.19,-12.92 82.91,-3.19 175.72,-25.91 184.17,-88.29 10.01,-73.83 5.39,-102.11 2.52,-194.15 -3.97,-127.84 -132.75,-114.95 -234.18,-95.73 -98.45,18.66 -266.93,58.51 -351.55,77.35 0.01,113.66 0.01,199.91 -0.15,313.74zm328.62 702.55c141.89,23.49 229.48,35.36 234.68,-87.09 1.71,-40.63 5.64,-135.53 -3.81,-204.32 -13.16,-95.87 -139.41,-111.99 -211.2,-115.93 -111.88,-6.15 -253.25,-11.64 -348.26,-11.44 0.02,120.02 0.02,219.1 0.03,339.11 96.29,20.94 211.57,60.31 328.56,79.67z"/>
  </g>
  <polygon class="fil3" points="171.34,2971.86 171.34,3150.27 "/>
  <polygon class="fil3" points="2608.53,3213.55 2608.53,3512.58 "/>
  <polygon class="fil3" points="2608.53,2316.49 2608.53,2615.03 "/>
  <polygon class="fil3" points="2608.53,3213.55 2608.53,3512.58 2608.53,3811.6 2608.53,3512.58 "/>
 </g>
</svg>
